<svg xmlns="http://www.w3.org/2000/svg" viewBox="0 0 170 170"><path fill="none" stroke="#fff" d="M66 21c3.46-.51 4.02-.99 7 1 7.29-3.86 8.21-15.06 5.4-16.71-1.45-1.1-3.85-.3-5.36 0C66.83 7.4 64.63 15.16 66 21zm33 1l10-1 4-17c-2.66.01-6.46-.22-8.78 1.17C99.89 7.78 99.21 17.34 99 22zm-89 4c1.76 5.31 5.01 5.36 10 6.63l21 4.45c29.73 4.96 57.13 5.46 87 1.19 5.26-.75 21.21-2.55 24.69-5.78 1.64-1.52 1.71-2.52 2.31-4.49l-36 3.72-20 1.37L89 34c-15.46.18-33.69-2.2-49-4.75-9.87-1.65-20.02-5.03-30-3.25zm150 108v-2c-19.24-10.18-41.09-20.96-54.91-38-4.42-5.46-11.38-15.66-10.53-23 1.68-14.61 21.25-20.17 33.44-22.39L143 46c-3.74-6.64-13.76-3.51-20-2.39-16.31 2.95-37.16 9.97-35.91 30.39 1.43 23.26 28.88 43.3 47.91 52.75 6.45 3.21 17.88 8.63 25 7.25zM29 161l3 5c7.22-4.26 11.36-14.81 15.42-22 12.15-21.5 21.27-44.57 28.91-68l6.3-23c.51-2.14 1.87-6.24-.96-7.34-3.14-1.24-5.57 1.79-6.53 4.36L69.34 72c-8.04 25.74-13.6 38.03-25.59 62L29 161zm68-25c3.21 6.78 11.29 13.22 17 18.13 2.26 1.94 6.36 5.74 9 6.8l11 2.07c-2.99-6.3-14.43-15.14-20-20.17-2.35-2.12-6.3-6.41-9-7.61-3-1.34-5.17-.25-8 .78zm-29 1l-4.78 11L55 164h9l14-26-10-1z"/></svg>