<?xml version="1.0" encoding="UTF-8" standalone="no"?>
<!DOCTYPE svg PUBLIC "-//W3C//DTD SVG 20010904//EN"
              "http://www.w3.org/TR/2001/REC-SVG-20010904/DTD/svg10.dtd">

<svg xmlns="http://www.w3.org/2000/svg"
     viewBox="0 0 170 170" width="100%" height="100%">
  <path id="Auswahl"
        fill="none" stroke="#fff" stroke-width="1"
        d="M 66.00,21.00
           C 69.46,20.49 70.02,20.01 73.00,22.00
             80.29,18.14 81.21,6.94 78.40,5.29
             76.95,4.19 74.55,4.99 73.04,5.29
             66.83,7.40 64.63,15.16 66.00,21.00 Z
           M 99.00,22.00
           C 99.00,22.00 109.00,21.00 109.00,21.00
             109.00,21.00 113.00,4.00 113.00,4.00
             110.34,4.01 106.54,3.78 104.22,5.17
             99.89,7.78 99.21,17.34 99.00,22.00 Z
           M 10.00,26.00
           C 11.76,31.31 15.01,31.36 20.00,32.63
             20.00,32.63 41.00,37.08 41.00,37.08
             70.73,42.04 98.13,42.54 128.00,38.27
             133.26,37.52 149.21,35.72 152.69,32.49
             154.33,30.97 154.40,29.97 155.00,28.00
             155.00,28.00 119.00,31.72 119.00,31.72
             119.00,31.72 99.00,33.09 99.00,33.09
             99.00,33.09 89.00,34.00 89.00,34.00
             73.54,34.18 55.31,31.80 40.00,29.25
             30.13,27.60 19.98,24.22 10.00,26.00 Z
           M 160.00,134.00
           C 160.00,134.00 160.00,132.00 160.00,132.00
             140.76,121.82 118.91,111.04 105.09,94.00
             100.67,88.54 93.71,78.34 94.56,71.00
             96.24,56.39 115.81,50.83 128.00,48.61
             128.00,48.61 143.00,46.00 143.00,46.00
             139.26,39.36 129.24,42.49 123.00,43.61
             106.69,46.56 85.84,53.58 87.09,74.00
             88.52,97.26 115.97,117.30 135.00,126.75
             141.45,129.96 152.88,135.38 160.00,134.00 Z
           M 29.00,161.00
           C 29.00,161.00 32.00,166.00 32.00,166.00
             39.22,161.74 43.36,151.19 47.42,144.00
             59.57,122.50 68.69,99.43 76.33,76.00
             76.33,76.00 82.63,53.00 82.63,53.00
             83.14,50.86 84.50,46.76 81.67,45.66
             78.53,44.42 76.10,47.45 75.14,50.02
             75.14,50.02 69.34,72.00 69.34,72.00
             61.30,97.74 55.74,110.03 43.75,134.00
             43.75,134.00 29.00,161.00 29.00,161.00 Z
           M 97.00,136.00
           C 100.21,142.78 108.29,149.22 114.00,154.13
             116.26,156.07 120.36,159.87 123.00,160.93
             123.00,160.93 134.00,163.00 134.00,163.00
             131.01,156.70 119.57,147.86 114.00,142.83
             111.65,140.71 107.70,136.42 105.00,135.22
             102.00,133.88 99.83,134.97 97.00,136.00 Z
           M 68.00,137.00
           C 68.00,137.00 63.22,148.00 63.22,148.00
             63.22,148.00 55.00,164.00 55.00,164.00
             55.00,164.00 64.00,164.00 64.00,164.00
             64.00,164.00 78.00,138.00 78.00,138.00
             78.00,138.00 68.00,137.00 68.00,137.00 Z" />
</svg>
